
<svg version="1.1" id="camara" xmlns="http://www.w3.org/2000/svg" xmlns:xlink="http://www.w3.org/1999/xlink" x="0px" y="0px"
	 viewBox="-248.5 370.9 100 100" enable-background="new -248.5 370.9 100 100" xml:space="preserve">
<path id="espiral" fill="#1175ED" d="M-174.4,408.1h-26.2l7-12.2c0.6-1.1,0.3-2.5-0.8-3.1c-1.1-0.6-2.5-0.3-3.1,0.8l-13.1,22.7l-7-12.2
	c-0.6-1.1-2-1.5-3.1-0.8c-1.1,0.6-1.5,2-0.8,3.1l13.1,22.7h-14.1c-1.3,0-2.3,1-2.3,2.3s1,2.3,2.3,2.3h26.2l-7,12.2
	c-0.6,1.1-0.3,2.5,0.8,3.1c1.1,0.6,2.5,0.3,3.1-0.8l13.1-22.7l7,12.2c0.6,1.1,2,1.5,3.1,0.8c1.1-0.6,1.5-2,0.8-3.1l-13.1-22.7h14.1
	c1.2,0,2.3-1,2.3-2.3C-172.2,409.1-173.2,408.1-174.4,408.1z M-189,420.9l-4.8,8.2h-9.5l-4.8-8.2l4.8-8.2h9.5L-189,420.9z"/>
<path d="M-174.5,420.9c0-13.3-10.7-24-24-24c-13.3,0-24,10.7-24,24c0,13.3,10.7,24,24,24C-185.2,444.9-174.5,434.1-174.5,420.9z
	 M-170,420.9c0,15.8-12.8,28.5-28.5,28.5c-15.8,0-28.5-12.8-28.5-28.5c0-15.8,12.8-28.5,28.5-28.5C-182.7,392.4-170,405.1-170,420.9
	z"/>
<path d="M-153.7,404.8c0-1.9-0.8-3.7-2.1-5.1c-1.3-1.3-3.2-2.1-5.1-2.1h-9.4c-2.1,0-4.2-0.6-6-1.6c-1.8-1.1-3.3-2.6-4.3-4.5
	l-2.3-4.2c-0.6-1.1-1.5-2.1-2.6-2.7c-1.1-0.7-2.4-1-3.7-1h-18.8c-1.3,0-2.6,0.3-3.7,1c-1.1,0.7-2,1.6-2.6,2.7l-2.3,4.3h0
	c-1,1.9-2.5,3.4-4.3,4.5c-1.8,1.1-3.9,1.6-6,1.6h-9.4c-1.9,0-3.7,0.8-5.1,2.1c-1.3,1.3-2.1,3.2-2.1,5.1v42.4c0,1.9,0.8,3.7,2.1,5.1
	c1.3,1.3,3.2,2.1,5.1,2.1h75.3c1.9,0,3.7-0.8,5.1-2.1c1.3-1.3,2.1-3.2,2.1-5.1V404.8z M-149.2,447.1c0,3.1-1.2,6.1-3.4,8.3
	c-2.2,2.2-5.2,3.4-8.3,3.4h-75.3c-3.1,0-6.1-1.2-8.3-3.4c-2.2-2.2-3.4-5.2-3.4-8.3v-42.4c0-3.1,1.2-6.1,3.4-8.3
	c2.2-2.2,5.2-3.4,8.3-3.4h9.4c1.3,0,2.6-0.3,3.7-1c1.1-0.7,2-1.6,2.6-2.7l2.3-4.3l0.4-0.7c1-1.6,2.3-2.9,3.9-3.8
	c1.8-1.1,3.9-1.6,6-1.6h18.8c2.1,0,4.2,0.6,6,1.6c1.8,1.1,3.3,2.6,4.3,4.5l2.3,4.2v0c0.6,1.1,1.5,2.1,2.6,2.7c1.1,0.7,2.4,1,3.7,1
	h9.4c3.1,0,6.1,1.2,8.3,3.4c2.2,2.2,3.4,5.2,3.4,8.3V447.1z"/>
</svg>
