<svg version="1.1" id="logo" xmlns="http://www.w3.org/2000/svg" xmlns:xlink="http://www.w3.org/1999/xlink" x="0px" y="0px"
	 viewBox="0 0 256 256" enable-background="new 0 0 256 256" xml:space="preserve">

	<ellipse fill="#F4C325" cx="127.7" cy="127.5" rx="127.7" ry="127.5"/>
	<path fill="#E2447E" d="M136.2,125.2c40.3-33.6,117.1-23.7,117.1-23.7l-6.6-22.5l-11.6-22.5c0,0-64.4,6.9-102.5,64.1
		c9.2-51.6,74.4-93.3,74.4-93.3l-19.5-13l-23.4-9.8c0,0-44.9,46.6-37.2,114.9C100.8,74,123.9,0.2,123.9,0.2l-23.3,2.6l-24.2,7.5
		c0,0-4.3,64.5,45.4,111.9c-49.3-18-79.1-89.4-79.1-89.4L26.5,49.7L12.8,71c0,0,38.2,52.2,106.9,56.6
		C70.3,145.4,1.5,109.8,1.5,109.8L0,133.2l3.2,25.1c0,0,62.9,15.4,118.3-25.4c-26.3,45.4-101.9,62.4-101.9,62.4l13.9,18.9L52,231.4
		c0,0,58.1-28.5,74.3-95.2c9,51.7-38,113-38,113l22.8,5.6l25.3,1.3c0,0,26.2-59.1-4.4-120.7c40.2,33.8,43.7,111,43.7,111l21-10.4
		l20.2-15.3c0,0-18-62.1-81-89.6c52.5,0.1,104.9,57,104.9,57l9.4-21.4l5.6-24.7C256,141.9,202.2,105.9,136.2,125.2z"/>

</svg>
